<svg width="180" height="88" xmlns="http://www.w3.org/2000/svg"><g fill="none" fill-rule="evenodd"><path d="M60.33 4.007c-3.33.79-6.948 1.773-10.685 3.02a114.593 114.593 0 00-11.217 4.419 117.31 117.31 0 00-10.02 5.205c-2.996 1.74-5.592 3.414-7.975 5.128-2.384 1.714-4.556 3.469-6.412 4.96-1.857 1.491-3.399 2.72-4.62 3.944-2.378 2.398-3.523 4.69-3.27 6.917a5.731 5.731 0 001.313 3.144c.8.95 1.995 1.75 3.293 2.196-1.338-.295-2.731-.365-4-.199-1.269.165-2.413.565-3.216.98-.802.413-1.262.84-1.73 1.383-.467.541-.942 1.197-1.11 2.034-.168.839-.03 1.858.253 2.718.548 1.702 1.677 2.752 2.971 3.982.632.61 1.292 1.276 1.985 1.88.692.603 1.419 1.145 1.979 1.71.56.566.954 1.156 1.331 1.794.378.638.739 1.326 1.057 2.268.32.943.596 2.139.874 3.332s.558 2.383 1.072 3.378c1.063 2.077 3.047 3.087 4.745 3.516.873.236 1.691.362 2.591.323.901-.04 1.884-.244 2.781-.456a21.48 21.48 0 002.962-.906c1.25-.474 2.938-1.202 4.495-2.073 1.556-.87 2.98-1.882 4.03-2.657 1.049-.774 1.722-1.312 2.366-1.884l16.318.052.005 20.017c0 .643.063 1.307.35 1.827.287.521.734.894 1.247 1.125.514.23 1.095.318 1.832.257.738-.06 1.61-.331 2.471-.601l31.464-9.87c6 1.773 11.997 3.554 17.965 5.374 5.968 1.82 11.908 3.68 15.077 4.515 3.169.834 3.568.645 3.974.466.406-.178.82-.346 1.103-.616.283-.27.435-.642.597-1.045.161-.402.333-.835.397-2.723s.022-5.23 0-8.597c-.021-3.369-.023-6.762-.024-10.155l14.934-.063a42.018 42.018 0 005.573 4.025c1.865 1.117 3.675 1.97 5.263 2.537 1.588.568 2.955.852 4.076 1.077 1.12.226 1.994.393 3.024.304 1.03-.09 2.217-.437 3.193-.947s1.741-1.181 2.39-2.336c.647-1.154 1.178-2.791 1.675-4.45.497-1.66.96-3.343 1.636-4.677.676-1.334 1.565-2.321 2.923-3.664 1.359-1.344 3.187-3.044 4.214-4.158 1.027-1.113 1.253-1.64 1.382-2.316.13-.677.163-1.503.004-2.265-.158-.762-.509-1.46-.986-2.077-.478-.617-1.082-1.153-2.025-1.57-1.854-.796-4.641-1.159-6.92-.624 1.246-.465 2.401-1.221 3.2-2.073.8-.852 1.243-1.8 1.38-2.803.138-1.005-.03-2.067-.257-2.87-.225-.804-.51-1.349-.788-1.86-.278-.511-.549-.989-1.268-1.742-.717-.754-1.883-1.783-3.076-2.81a111.584 111.584 0 00-4.346-3.56c-1.927-1.508-4.559-3.496-7.477-5.428-2.917-1.931-6.12-3.805-9.451-5.555A111.453 111.453 0 00136.59 9.28a125.447 125.447 0 00-11.959-4.075 111.787 111.787 0 00-10.498-2.424c-3.007-.546-5.434-.865-7.715-1.146-2.28-.282-4.413-.526-6.922-.71-2.509-.184-5.394-.31-8.51-.316-3.116-.006-6.464.107-10.042.362-3.578.254-7.388.652-10.815 1.15a108.738 108.738 0 00-9.798 1.886" fill="#B30839"/><path d="M49.645 7.027a114.593 114.593 0 00-11.217 4.419 117.31 117.31 0 00-10.02 5.205c-2.996 1.74-5.592 3.414-7.975 5.128-2.384 1.714-4.556 3.469-6.412 4.96-1.857 1.491-3.399 2.72-4.62 3.944-2.378 2.398-3.523 4.69-3.27 6.917a5.731 5.731 0 001.313 3.144c.8.95 1.995 1.75 3.293 2.196-1.338-.295-2.731-.365-4-.199-1.269.165-2.413.565-3.216.98-.802.413-1.262.84-1.73 1.383-.467.541-.942 1.197-1.11 2.034-.168.839-.03 1.858.253 2.718.548 1.702 1.677 2.752 2.971 3.982.632.61 1.292 1.276 1.985 1.88.692.603 1.419 1.145 1.979 1.71.56.566.954 1.156 1.331 1.794.378.638.739 1.326 1.057 2.268.32.943.596 2.139.874 3.332s.558 2.383 1.072 3.378c1.063 2.077 3.047 3.087 4.745 3.516.873.236 1.691.362 2.591.323.901-.04 1.884-.244 2.781-.456a21.48 21.48 0 002.962-.906c1.25-.474 2.938-1.202 4.495-2.073 1.556-.87 2.98-1.882 4.03-2.657 1.049-.774 1.722-1.312 2.366-1.884l16.318.052.005 20.017c0 .643.063 1.307.35 1.827.287.521.734.894 1.247 1.125.514.23 1.095.318 1.832.257.738-.06 1.61-.331 2.471-.601l31.464-9.87c6 1.773 11.997 3.554 17.965 5.374 5.968 1.82 11.908 3.68 15.077 4.515 3.169.834 3.568.645 3.974.466.406-.178.82-.346 1.103-.616.283-.27.435-.642.597-1.045.161-.402.333-.835.397-2.723s.022-5.23 0-8.597c-.021-3.369-.023-6.762-.024-10.155l14.934-.063a42.018 42.018 0 005.573 4.025c1.865 1.117 3.675 1.97 5.263 2.537 1.588.568 2.955.852 4.076 1.077 1.12.226 1.994.393 3.024.304 1.03-.09 2.217-.437 3.193-.947s1.741-1.181 2.39-2.336c.647-1.154 1.178-2.791 1.675-4.45.497-1.66.96-3.343 1.636-4.677.676-1.334 1.565-2.321 2.923-3.664 1.359-1.344 3.187-3.044 4.214-4.158 1.027-1.113 1.253-1.64 1.382-2.316.13-.677.163-1.503.004-2.265-.158-.762-.509-1.46-.986-2.077-.478-.617-1.082-1.153-2.025-1.57-1.854-.796-4.641-1.159-6.92-.624 1.246-.465 2.401-1.221 3.2-2.073.8-.852 1.243-1.8 1.38-2.803.138-1.005-.03-2.067-.257-2.87-.225-.804-.51-1.349-.788-1.86-.278-.511-.549-.989-1.268-1.742-.717-.754-1.883-1.783-3.076-2.81a111.584 111.584 0 00-4.346-3.56c-1.927-1.508-4.559-3.496-7.477-5.428-2.917-1.931-6.12-3.805-9.451-5.555A111.453 111.453 0 00136.59 9.28a125.447 125.447 0 00-11.959-4.075 111.787 111.787 0 00-10.498-2.424c-3.007-.546-5.434-.865-7.715-1.146-2.28-.282-4.413-.526-6.922-.71-2.509-.184-5.394-.31-8.51-.316-3.116-.006-6.464.107-10.042.362-3.578.254-7.388.652-10.815 1.15a108.738 108.738 0 00-9.798 1.886c-3.33.79-6.95 1.773-10.686 3.02z" fill="#A41F35"/><path d="M89.854 76.234l.178.052a2170.884 2170.884 0 0117.97 5.376c1.293.394 2.585.79 3.847 1.177 4.493 1.378 8.737 2.68 11.208 3.33 2.945.776 3.304.618 3.566.502l.105-.045c.333-.146.648-.283.831-.458.191-.183.318-.497.452-.83.137-.342.292-.73.353-2.518.053-1.542.033-4.096.013-6.8l-.013-1.773c-.021-3.382-.022-6.827-.023-10.158v-.606l15.765-.067.172.147a41.507 41.507 0 005.491 3.966c1.744 1.044 3.526 1.903 5.155 2.485 1.601.574 2.982.851 3.99 1.054 1.008.203 1.879.379 2.852.294.962-.084 2.07-.413 2.964-.88.956-.498 1.596-1.125 2.14-2.094.618-1.102 1.146-2.731 1.623-4.328l.169-.564c.434-1.466.884-2.98 1.508-4.212.698-1.378 1.606-2.407 3.038-3.823.466-.46.997-.973 1.51-1.468.993-.958 2.02-1.948 2.685-2.669.992-1.076 1.132-1.498 1.231-2.018.13-.68.133-1.419.006-2.026-.132-.637-.426-1.252-.872-1.829-.483-.624-1.035-1.05-1.789-1.384-1.587-.682-4.227-1.131-6.536-.59l-.352-1.163c1.144-.426 2.226-1.126 2.97-1.918.686-.731 1.097-1.562 1.221-2.47.143-1.038-.089-2.088-.24-2.622-.203-.722-.454-1.212-.737-1.734-.238-.438-.483-.89-1.173-1.613-.744-.78-2.012-1.89-3.033-2.768a111.027 111.027 0 00-4.324-3.542c-2.662-2.083-5.095-3.85-7.438-5.4-2.847-1.885-6.01-3.743-9.399-5.523a111.09 111.09 0 00-10.573-4.878 125.31 125.31 0 00-11.9-4.055 111.306 111.306 0 00-10.44-2.411c-3.065-.556-5.572-.88-7.681-1.14-2.479-.307-4.496-.532-6.892-.708a119.356 119.356 0 00-8.468-.314c-3.194-.007-6.555.115-9.997.36-3.646.26-7.471.666-10.77 1.145a107.881 107.881 0 00-9.746 1.876 124.74 124.74 0 00-10.634 3.006 114.42 114.42 0 00-11.156 4.394 116.463 116.463 0 00-9.967 5.178c-2.933 1.703-5.526 3.37-7.926 5.096-2.258 1.624-4.31 3.273-6.121 4.728l-.455.365c-1.73 1.39-3.224 2.59-4.38 3.747-2.309 2.328-3.322 4.428-3.096 6.418a5.156 5.156 0 001.174 2.82c.732.87 1.834 1.604 3.025 2.013l-.329 1.17c-1.276-.28-2.587-.346-3.79-.19-1.053.138-2.152.472-3.016.918-.717.369-1.124.748-1.548 1.24-.4.464-.83 1.036-.974 1.756-.132.657-.044 1.558.234 2.41.491 1.523 1.483 2.465 2.738 3.658l.075.07.472.46c.482.47.981.957 1.493 1.402.241.21.492.418.734.617.461.38.896.74 1.278 1.125.636.643 1.06 1.299 1.422 1.912.351.593.757 1.34 1.11 2.383.321.949.6 2.147.87 3.306l.02.083c.264 1.13.536 2.3 1.02 3.236 1.076 2.103 3.189 2.911 4.353 3.206l.009.002c.9.243 1.642.337 2.407.303.871-.038 1.837-.244 2.667-.44a20.84 20.84 0 002.886-.883c.898-.34 2.665-1.057 4.414-2.035 1.57-.878 3.014-1.913 3.965-2.616 1.014-.748 1.687-1.284 2.324-1.85l.174-.154 17.157.055.005 20.624c0 .445.029 1.088.274 1.533.206.374.54.673.964.864.427.19.914.256 1.532.205.682-.056 1.562-.332 2.339-.576l31.64-9.924zm36.286 11.755c-.617 0-1.583-.165-3.393-.641-2.495-.658-6.75-1.963-11.255-3.344-1.262-.387-2.552-.783-3.844-1.177-6-1.83-12.089-3.637-17.783-5.32L58.578 87.32c-.837.262-1.786.56-2.603.627-.83.069-1.508-.03-2.13-.308a3.236 3.236 0 01-1.532-1.387c-.377-.683-.425-1.492-.426-2.12l-.005-19.41-15.48-.05c-.615.535-1.28 1.06-2.233 1.764-.977.722-2.465 1.787-4.095 2.699-1.817 1.016-3.647 1.758-4.576 2.11a22.225 22.225 0 01-3.038.93c-.885.21-1.922.429-2.894.471-.893.04-1.748-.066-2.772-.341-1.364-.346-3.841-1.304-5.133-3.829-.552-1.07-.842-2.313-1.123-3.517l-.02-.082c-.263-1.13-.535-2.3-.837-3.193a10.839 10.839 0 00-1.005-2.153c-.323-.546-.696-1.126-1.24-1.675-.338-.342-.75-.682-1.187-1.042a36.28 36.28 0 01-.76-.639 37.775 37.775 0 01-1.542-1.449l-.464-.45-.072-.068C2.141 53 .94 51.86.354 50.043.009 48.99-.09 47.885.084 47.02c.2-1.002.771-1.763 1.246-2.313.505-.585 1.024-1.069 1.912-1.527.984-.507 2.23-.887 3.416-1.042.406-.053.823-.083 1.246-.091a7.131 7.131 0 01-.926-.91 6.363 6.363 0 01-1.453-3.475c-.27-2.373.857-4.799 3.444-7.407 1.204-1.206 2.722-2.426 4.48-3.837l.455-.366c1.823-1.464 3.888-3.123 6.173-4.766 2.433-1.75 5.058-3.438 8.026-5.16a117.68 117.68 0 0110.071-5.233A115.666 115.666 0 0149.452 6.45 125.95 125.95 0 0160.19 3.414c3.493-.829 6.532-1.414 9.852-1.896C73.369 1.035 77.226.625 80.9.363 84.284.123 87.593 0 90.74 0h.246c2.89.006 5.768.113 8.554.318 2.413.177 4.524.413 6.952.712 2.126.263 4.653.59 7.75 1.152 3.6.653 7.15 1.473 10.555 2.437a126.566 126.566 0 0112.018 4.096 112.264 112.264 0 0110.689 4.93c3.425 1.8 6.623 3.679 9.504 5.586 2.37 1.57 4.83 3.354 7.517 5.457a112.026 112.026 0 014.367 3.578c1.043.897 2.34 2.032 3.12 2.85.743.779 1.044 1.288 1.362 1.872.307.566.603 1.144.84 1.986.176.624.446 1.86.274 3.117-.16 1.163-.677 2.22-1.54 3.138-.263.28-.56.55-.885.804 1.539.048 3.115.364 4.402.917.942.417 1.66.974 2.265 1.756.56.724.931 1.507 1.101 2.326.16.77.16 1.659-.002 2.503-.152.798-.431 1.42-1.532 2.615-.689.747-1.729 1.75-2.734 2.72-.511.492-1.039 1.002-1.5 1.457-1.37 1.356-2.181 2.27-2.808 3.507-.574 1.134-.988 2.53-1.427 4.008l-.169.568c-.575 1.922-1.09 3.436-1.728 4.574-.66 1.175-1.473 1.97-2.638 2.578-1.028.537-2.308.916-3.422 1.013-1.149.1-2.144-.1-3.198-.313-1.304-.262-2.605-.544-4.16-1.101-1.703-.608-3.56-1.503-5.37-2.588a42.66 42.66 0 01-5.483-3.937l-14.103.06a1578.337 1578.337 0 00.037 11.315c.02 2.717.04 5.283-.014 6.85-.068 2.003-.266 2.496-.44 2.93-.168.419-.359.893-.742 1.259-.338.323-.768.51-1.184.692l-.094.04a2.19 2.19 0 01-.981.207z" fill="#FEFEFE"/><path d="M52.465 9.173c-3.68 1.173-7.54 2.554-11.157 4.102a101.61 101.61 0 00-9.945 4.933 93.577 93.577 0 00-7.96 5.035 135.988 135.988 0 00-6.964 5.268c-2.077 1.674-3.816 3.165-4.935 4.22-1.12 1.056-1.62 1.675-1.985 2.347-.363.672-.59 1.398-.576 2.038.014.638.268 1.19.635 1.646.366.455.846.813 1.64 1.137.795.323 1.905.613 3.274.738 1.37.126 2.998.089 4.015.224 1.018.135 1.424.443 1.59.827.167.383.094.842-.207 1.283-.301.442-.83.866-1.414 1.219-.584.352-1.223.632-1.738.834-.514.202-.904.325-1.295.465-.39.138-.781.292-1.7.352-.919.061-2.365.028-3.781-.004-1.416-.033-2.8-.064-3.672.013-.872.078-1.23.266-1.565.503a2.2 2.2 0 00-1.037 2.066c.013.409.084.802.624 1.51.541.71 1.553 1.735 2.599 2.687 1.045.953 2.126 1.833 2.87 2.588.743.754 1.15 1.383 1.554 1.995.402.613.8 1.21 1.204 2.189.404.978.814 2.339 1.177 3.738.363 1.398.68 2.835 1.148 3.805.469.97 1.09 1.474 2.207 1.76 1.116.285 2.725.354 4.519.022 1.794-.331 3.77-1.062 5.56-1.966 1.79-.904 3.392-1.98 4.608-2.885 1.216-.905 2.046-1.637 2.8-2.443l21.046-.066.008 23.12 34.42-10.741 35.74 11.016.062-23.42 19.663.052a27.99 27.99 0 004.736 3.822 28.15 28.15 0 005.062 2.538c1.624.618 3.113 1.006 4.447 1.13 1.334.126 2.513-.012 3.284-.232.77-.22 1.135-.52 1.477-.84.342-.318.664-.654.956-1.507.291-.852.556-2.22.88-3.538.324-1.318.708-2.585 1.415-3.928.706-1.341 1.734-2.758 2.69-3.803.957-1.045 1.842-1.718 2.79-2.568.949-.85 1.96-1.874 2.5-2.584.541-.71.61-1.102.624-1.51.01-.407-.037-.828-.199-1.17-.163-.343-.44-.607-.774-.848s-.723-.459-1.64-.549c-.917-.09-2.36-.05-3.78-.003-1.418.049-2.811.106-3.919-.02-1.107-.125-1.93-.434-2.721-.755-.792-.322-1.552-.659-2.195-1.13-.643-.473-1.167-1.082-1.303-1.609-.136-.526.116-.97.567-1.245.451-.274 1.102-.38 1.716-.417.615-.036 1.195-.002 2.161-.007.967-.005 2.32-.047 3.45-.367 1.13-.32 2.038-.916 2.518-1.357.48-.44.533-.726.637-1.016.103-.29.257-.586.219-1.038-.04-.453-.27-1.064-.537-1.624s-.569-1.071-1.523-2.025c-.953-.954-2.558-2.353-4.59-4.016a120.816 120.816 0 00-7.31-5.561c-2.82-1.972-6-3.987-9.173-5.78a91.509 91.509 0 00-10.003-4.897 131.251 131.251 0 00-11.571-4.17 106.14 106.14 0 00-10.5-2.655 133.015 133.015 0 00-10.095-1.64c-3.147-.38-5.92-.572-7.982-.724-2.061-.152-3.412-.262-5.163-.286-1.75-.024-3.902.037-6.343.127s-5.172.207-9.08.628c-3.908.42-8.994 1.142-13.286 1.986-4.294.843-7.794 1.808-11.474 2.98" fill="#8B6E4A"/><path d="M61.47 8.005c-3.773.9-7.74 2.073-11.635 3.433a121.005 121.005 0 00-11.198 4.534 97.938 97.938 0 00-9.466 5.061 103.349 103.349 0 00-7.563 5.087c-2.195 1.616-4.057 3.104-5.37 4.298-1.315 1.193-2.082 2.095-2.485 2.97-.404.875-.445 1.723-.173 2.417.272.695.857 1.235 2.181 1.283 1.325.048 3.39-.396 4.754-.456 1.365-.06 2.03.261 2.677.87.648.607 1.278 1.5 2.032 2.991.755 1.49 1.632 3.576 2.287 4.841.655 1.266 1.087 1.711 1.538 2.205.45.494.919 1.038 1.475.983.556-.054 1.199-.707 2.24-1.843 1.04-1.136 2.48-2.758 4.293-4.385 1.815-1.628 4.004-3.264 6.721-4.885 2.717-1.62 5.962-3.226 9.135-4.556a75.836 75.836 0 019.443-3.25 93.263 93.263 0 019.471-2.037 123.83 123.83 0 018.349-1.044c2.396-.223 4.3-.349 7.157-.39 2.856-.04 6.666.004 9.686.159 3.021.155 5.254.422 7.679.769 2.424.346 5.041.774 7.7 1.334 2.66.56 5.362 1.254 8.35 2.209 2.989.955 6.265 2.173 9.193 3.487 2.93 1.314 5.511 2.724 7.543 4.02 2.033 1.295 3.517 2.476 4.932 3.663 1.414 1.188 2.76 2.381 3.87 3.556a20.698 20.698 0 012.724 3.56 9.333 9.333 0 003.047-2.75c.828-1.172 1.445-2.61 2.056-4 .612-1.39 1.218-2.73 1.821-3.65.603-.918 1.203-1.414 2.008-1.667.806-.253 1.817-.263 3.045-.13 1.228.134 2.672.41 3.62.333.949-.076 1.401-.508 1.668-.86.268-.351.35-.623.394-.961.128-.658-.12-1.812-.894-2.868-.38-.525-.858-.98-2.398-2.274-1.54-1.296-4.141-3.432-6.948-5.416-5.61-3.951-12.373-7.573-18.886-10.422-3.26-1.41-6.383-2.549-9.835-3.66-3.452-1.114-7.232-2.2-10.975-3.002-3.742-.8-7.446-1.317-9.876-1.624-2.43-.308-3.585-.406-4.739-.517-1.154-.111-2.307-.235-3.835-.359-1.527-.123-3.43-.245-5.16-.306a66.317 66.317 0 00-4.962.001c-1.672.063-3.46.187-6.108.38-2.647.192-6.154.452-9.695.897a100.062 100.062 0 00-10.889 1.971z" fill="#FEFEFE"/><path d="M68.372 29.64c-3.675.726-6.638 1.526-9.619 2.54-2.981 1.016-5.981 2.246-8.224 3.246-2.243 1-3.73 1.77-4.953 2.455a45.502 45.502 0 00-2.914 1.766c-.729.483-1.227.85-1.703 1.245l98.122-.035a56.771 56.771 0 00-7.024-4.233 74.857 74.857 0 00-8.69-3.765 86.744 86.744 0 00-9.932-2.906 101.815 101.815 0 00-9.877-1.731c-3.15-.4-6.095-.643-9.85-.719-3.754-.076-8.318.014-12.795.386a115.255 115.255 0 00-12.54 1.751" fill="#A41F35"/><path d="M12.316 38.99c.3.113.593.243 1.203.288.61.045 1.538.006 2.456.02a23.73 23.73 0 012.516.174c.689.087 1.159.194 1.572.368.9.337 1.273 1.057 1.421 1.682.282.652.113 1.171-.229 1.79-.154.32-.28.652-.678 1.007-.397.355-1.063.733-1.768 1.099-.705.366-1.448.72-2.039.963-.592.243-1.032.375-1.481.51-.45.137-.909.276-1.861.326-.952.05-2.398.013-3.832-.003-1.434-.016-2.858-.01-3.622.137-.764.147-.869.434-.898.735-.029.3.018.613.564 1.293.546.68 1.591 1.727 2.651 2.723 1.06.996 2.135 1.94 2.903 2.76.768.82 1.228 1.514 1.66 2.269.432.755.835 1.569 1.17 2.495.335.926.602 1.964.897 3.148.294 1.184.616 2.512 1.08 3.36.462.849 1.065 1.217 1.669 1.43.603.214 1.207.273 1.976.207.768-.065 1.702-.255 2.516-.448 1.678-.371 3.08-.984 4.725-1.896a56.02 56.02 0 002.474-1.465c1.574-.943 2.64-1.856 3.852-3.168.624-.65 1.319-1.371 1.773-2.19.455-.82.67-1.735.484-2.633-.186-.898-.773-1.778-1.535-2.588-.762-.811-1.7-1.552-2.543-2.207-.845-.656-1.597-1.227-2.312-1.782-.715-.556-1.393-1.096-1.979-1.84-.586-.742-1.08-1.687-1.552-2.68a54.16 54.16 0 01-1.253-2.848c-.329-.814-.536-1.4-.792-1.923-.5-1.061-1.14-1.588-1.702-1.816-.274-.145-.54-.317-1.22-.322-.679-.004-1.773.16-2.797.271-1.023.112-1.977.173-2.74.05a3.744 3.744 0 01-1.817-.82c-1.038-.78-1.491-2.081-1.126-3.27-.881.52-1.6 1.502-1.689 2.328-.09.826.45 1.496.874 1.877.423.383.729.477 1.029.59M162.702 38.048c-1.116-.079-2.46-.197-3.404-.128-.943.07-1.485.33-2.092 1.242-.607.914-1.279 2.482-1.974 4.025-.694 1.544-1.411 3.062-2.19 4.126-.781 1.065-1.624 1.675-2.483 2.319-.86.643-1.736 1.32-2.576 2.034a50 50 0 00-2.144 1.95c-.5.482-.696.693-.874.956-.41.555-.493 1.261-.483 1.925-.013.348-.051.7.297 1.388.349.687 1.083 1.71 1.907 2.665.824.956 1.74 1.845 3.21 2.845 1.469.999 3.493 2.108 5.194 2.847 1.702.74 3.08 1.11 4.353 1.295 1.274.183 2.442.181 3.262-.205.82-.387 1.29-1.158 1.62-2.177.33-1.019.52-2.286.794-3.415a17.255 17.255 0 011-2.943c1.067-2.367 2.364-3.8 4.478-5.687.704-.621 1.465-1.242 2.206-1.89.741-.648 1.465-1.323 1.767-2.001.302-.678.184-1.36-.323-1.727-.508-.368-1.404-.42-2.216-.42-.811 0-1.538.052-2.218.077-.68.024-1.314.02-1.922.035-.608.014-1.189.047-1.931-.067-1.45-.252-3.306-.856-4.892-1.886-.774-.506-1.535-1.145-2.002-1.653-.901-.957-.7-1.51-.48-2.188.097-.316.173-.64.473-.958.3-.319.823-.633 1.461-.843.638-.21 1.392-.314 2.582-.35 1.19-.038 2.817-.007 3.997-.218 1.18-.212 1.913-.666 2.29-1.2.376-.533.395-1.147.147-1.805-.248-.657-.762-1.359-1.4-1.875a7.61 7.61 0 01-.285 1.988c-.165.562-.387.974-.771 1.294-.385.32-.933.55-1.652.646-.719.095-1.608.058-2.726-.021" fill="#FEFEFE"/><path d="M32.083 49.974c1.418 1.159 2.78 2.396 3.586 3.212.805.818 1.052 1.214 1.25 1.673.196.46.342.98.318 1.482-.023.5-.216.979-.474 1.574-.259.597-.583 1.31-.937 2.008l108.402-.039c-.82-.993-1.34-2.28-1.384-3.397-.043-1.118.391-2.066 1.301-3.17.91-1.104 2.296-2.364 3.819-3.384-1.391-1.772-2.783-3.544-3.983-4.818-1.2-1.275-2.21-2.052-3.22-2.828l-101.482.035c-1.78 1.622-3.562 3.244-4.762 4.519-1.2 1.276-1.817 2.204-2.434 3.133" fill="#FEFEFE"/><path d="M9.653 51.457c.343.46.74.876 1.666 1.807.925.931 2.377 2.378 3.466 3.836a16.978 16.978 0 012.223 4.002c.41 1.075.503 1.757.612 2.45.11.696.235 1.403.533 1.742.296.34.764.31.936-.149.172-.46.048-1.35-.132-2.2-.326-1.617-.972-3.197-1.801-4.763-.385-.74-.772-1.445-1.418-2.27-.646-.826-1.55-1.772-2.575-2.827-1.026-1.054-2.174-2.217-2.388-2.814-.213-.596.509-.627 1.294-.648.786-.02 1.635-.031 1.927-.27.29-.237.024-.702-.465-.947-.489-.244-1.2-.27-1.934-.188-.734.082-1.493.272-1.973.585-.984.614-.702 1.718.03 2.654M169.12 49.886c.552.295.02.879-.635 1.533-.654.654-1.429 1.38-2.211 2.161-.783.782-1.573 1.62-2.39 2.894-.816 1.272-1.658 2.98-2.22 4.415-.562 1.434-.842 2.598-.813 3.405.028.808.367 1.262.826.528.458-.734 1.038-2.655 1.538-3.986.5-1.332.92-2.073 1.335-2.785.415-.711.827-1.392 1.452-2.122.626-.73 1.465-1.508 2.279-2.314.813-.807 1.598-1.642 2.108-2.268.51-.625.744-1.04.639-1.54-.105-.498-.548-1.082-1.324-1.41-.777-.328-1.887-.402-2.677-.165-.79.239-1.262.789-.679 1.069.584.28 2.22.289 2.772.585" fill="#8B6E4A"/><path d="M21.798 64.63c.257.097.627-.129.617-.766-.01-.638-.4-1.689-.787-2.682a26.144 26.144 0 00-1.533-3.33c-.762-1.401-1.902-3.265-2.614-4.402-.712-1.136-.997-1.543-1.335-1.969-.338-.425-.73-.867-1.166-.943-.437-.076-.92.216-.83.607.087.39.746.879 1.624 1.958.878 1.079 1.976 2.748 2.78 4.132.803 1.386 1.311 2.487 1.712 3.517.401 1.03.694 1.985.913 2.673.218.688.362 1.108.619 1.205M157.75 64c.066.72.497 1.097.898.362.4-.734.77-2.58 1.65-4.662.883-2.084 2.279-4.405 3.372-5.96 1.092-1.554 1.881-2.343 1.978-2.81.097-.469-.499-.618-.98-.371-.48.247-.847.887-1.363 1.687-.515.8-1.18 1.756-2.042 3.27-.862 1.512-1.92 3.58-2.6 5.144-.68 1.564-.979 2.623-.913 3.34" fill="#8B6E4A"/><path fill="#A41F35" d="M89.783 72.332l34.922 10.467.091-21.47-68.022.156-.026 21.337z"/><path d="M69.658 70.329c.64.021 1.17.308 1.942.307 1.346 0 2.294-.816 2.293-1.96 0-1.586-2.053-2.378-2.053-3.524 0-1.233 2.074-1.101 2.075.132 0 .132 0 .22-.023.418h.376c.066-.485.176-.99.374-1.52-.595-.065-1.103-.33-1.699-.33-1.236.001-2.118.772-2.117 1.852 0 1.497 1.986 2.245 1.986 3.434.001 1.41-2.337 1.499-2.338.045 0-.176 0-.33.066-.595l-.42.001a15.096 15.096 0 01-.462 1.74M76.42 64.732c0 .75 1.148.594 1.147-.133 0-.792-1.147-.593-1.147.133m.686 4.69l-.2-.219c-.176.154-.528.617-.771.617s-.044-.353 0-.463l.727-1.784c.132-.33.551-1.211-.133-1.21-.728 0-1.301.726-1.786 1.211l.22.22c.154-.154.486-.595.662-.595.044 0 .088.044.088.11a6.053 6.053 0 01-.154.485l-.551 1.41c-.132.308-.64 1.41.089 1.409.772 0 1.345-.661 1.809-1.19M77.712 67.617l.243.176c.133-.154.508-.639.662-.639.066 0 .11.044.11.11 0 .991-.881 2.357-1.212 3.326 0 0 0 .022.044.022.31-.044.596-.088.926-.11.42-1.036.927-2.115 1.765-2.908.044-.022.727-.705.728-.309 0 .617-1.191 2.27-1.19 2.974 0 .22.176.352.463.352.706 0 1.368-.727 1.787-1.233l-.22-.199c-.112.155-.574.705-.817.705-.066 0-.132-.044-.132-.11-.001-.44.573-1.212.75-1.652.198-.396.462-.881.462-1.343 0-.243-.177-.419-.441-.419-.95 0-1.81 1.146-2.316 1.829.154-.419.396-.947.396-1.387 0-.286-.155-.44-.42-.44-.639 0-1.257.77-1.588 1.255M85.36 69.508l-.177-.242c-.264.265-.75.772-1.147.772-.22 0-.353-.22-.353-.573 0-.55.154-1.211.419-1.74.286-.64.551-.947.771-.947.089 0 .133.065.133.198.022.33.088.44.331.44.684 0 .816-1.058.022-1.057-1.39 0-2.736 1.63-2.735 3.282 0 .617.31.97.86.969.552 0 1.258-.397 1.876-1.102M87.38 68.428c.088-.506.264-1.1.617-1.497.22-.22.397-.11.397.22 0 .572-.33.969-1.014 1.277m1.545 1.035l-.2-.242c-.242.242-.771.727-1.146.727-.441 0-.331-.837-.265-1.123.706-.309 1.963-.86 1.963-1.762 0-.441-.221-.706-.596-.706-1.456.001-2.559 1.984-2.558 3.262 0 .66.264.99.86.99.552 0 1.125-.33 1.942-1.146M94.563 64.968l-1.101 3.877c-.22.749-.287 1.299-1.103 1.3l-.11.352c.33-.022.529-.044.904-.044h.508l1.147.043h.088l.11-.352c-.286 0-.662 0-.662-.397 0-.176.045-.396.177-.903l.86-2.93c.153-.527.286-1.078.506-1.607l-.243-.264-2.096.926.177.352.838-.353M99.676 66.904c-.397.243-.662.331-.927.331-.441 0-.706-.374-.707-1.012 0-.947.441-1.63 1.06-1.63 1.124-.001.75 1.673.574 2.311m-3.22 3.371l.154.33c1.875-.661 4.412-2.49 4.411-4.692 0-1.101-.684-1.762-1.788-1.761-1.235 0-2.316 1.058-2.316 2.313 0 .793.552 1.343 1.303 1.343.42 0 .794-.11 1.235-.375-.64 1.256-1.764 2.203-3 2.842M104.551 64.547h.044c.287-.001.42.352.42 1.056 0 1.233-.462 3.216-1.19 4.207-.177.243-.397.375-.596.375-.485 0-.508-.66-.508-.991 0-1.167.308-2.379.772-3.436.33-.771.705-1.167 1.058-1.211m-2.911 4.075c0 1.277.552 1.982 1.567 1.982 1.964 0 2.912-2.93 2.911-4.517 0-1.255-.552-1.96-1.545-1.959-1.964 0-2.934 2.908-2.933 4.494M108.657 64.964l-1.102 3.876c-.22.75-.287 1.3-1.103 1.3l-.11.352c.331-.022.53-.044.905-.044h.507l1.147.043h.089l.11-.352c-.287 0-.662 0-.662-.396 0-.177.044-.397.176-.903l.86-2.93c.154-.529.286-1.08.506-1.608l-.242-.264-2.096.926.176.352.839-.352" fill="#FEFEFE"/><path d="M49.735 50.741c.334.047.665.127.934.223.27.095.478.205.65.328.895.735.821 1.386.685 2.33-.096.406-.25.745-.614 1.084-.409.356-.808.496-1.313.598-.706.152-1.693.053-2.518.044-.475-.013-.913-.027-1.453-.026-.54 0-1.181.016-1.538.025-.665.019-.523.019-.752.022-.339-.009-.166-.408-.203-.622.028-.368.45-.04.897-.387.09-.198.077-.418.083-.747l-.002-5.07c-.017-.286.048-.562-.134-.814-.148-.176-.582.053-.842-.267.003-.2-.05-.375.036-.614.028-.034.069-.058.163-.064.095-.005.242.008.54.019.296.012.741.022 1.456.022s1.698-.008 2.244-.016c.545-.007.652-.013.817-.018.552.005 1.521-.147 2.309.51.708.747.817 1.676.027 2.707-.425.458-.947.648-1.472.733M84.657 51.359l.001 2.24c.018.285-.047.562.135.813.148.175.58-.053.841.267.004.193.03.373-.017.588a.155.155 0 01-.069.065c-.03.016-.07.026-.212.025-.14-.002-.383-.015-.724-.027a35.453 35.453 0 00-1.326-.02 81.385 81.385 0 00-1.975.04c-.12-.028-.378.143-.46-.174.016-.192-.055-.363.049-.576.164-.169.478.058.848-.251.09-.199.077-.42.083-.75l-.002-5.068c-.017-.285.048-.561-.134-.813-.148-.176-.582.053-.841-.266-.004-.193-.03-.373.017-.59a.153.153 0 01.071-.065c.032-.016.074-.025.224-.023.151.002.411.014.762.025.35.012.792.023 1.32.02a66.35 66.35 0 001.466-.027c.324-.008.357-.01.428-.013.125.033.407-.15.495.176-.016.192.054.362-.048.576-.164.169-.478-.06-.849.252-.09.198-.077.418-.083.747v2.023h2.766l-.001-2.024c-.017-.285.047-.561-.135-.813-.147-.175-.58.053-.84-.266.007-.208-.07-.398.052-.632.219-.097.507-.02.962-.023.6.019 1.236.03 1.923.019.385-.007.811-.02 1.068-.027.474.01.507-.1.747.064.04.213.071.43-.022.678-.163.169-.476-.059-.845.252-.09.198-.077.418-.083.748l.002 5.068c.017.286-.048.563.133.813.149.175.578-.054.839.268-.008.206.067.395-.052.63-.18.085-.121.034-.317.041-.34-.01-.916-.031-1.467-.038-.325-.004-.68-.005-1.093.002-.413.006-.884.02-1.156.028-.499.003-.449.057-.637-.031-.105-.218-.093-.455-.009-.712.164-.169.478.058.848-.252.09-.198.077-.42.084-.748l-.001-2.24h-2.766M100.96 54.316a3.995 3.995 0 01-1.179.72c-.95.401-2.368.592-3.655.46a7.236 7.236 0 01-1.742-.386 4.26 4.26 0 01-1.248-.692 2.848 2.848 0 01-.632-.754c-.405-.659-.556-1.644-.559-2.63a7.462 7.462 0 01.142-1.52c.094-.44.233-.784.408-1.08.175-.295.386-.543.633-.748a4.267 4.267 0 011.308-.713c.982-.36 2.526-.502 3.898-.286.646.1 1.2.271 1.66.487.46.217.827.479 1.136.798.19.202.349.434.48.717.296.592.408 1.6.393 2.57a7.607 7.607 0 01-.14 1.404 3.235 3.235 0 01-.355.962 2.849 2.849 0 01-.548.691M102.907 47.61c-.567.075-.381-.451-.402-.723.012-.07.12-.128.202-.12.33.011.662.02 1.033.029.372.01.785.019 1.267.016.482-.003 1.034-.019 1.39-.028.473.01.584-.09.848.045.066.218.08.442-.01.694-.163.169-.478-.06-.848.252-.091.198-.077.419-.084.748l.002 4.202c.054.593-.091 1.22.81 1.787.664.293 1.545.37 2.603.024.267-.119.481-.228.702-.545.181-.311.281-.823.296-1.38-.014-1.56.04-3.07-.04-4.678-.127-.448-.535-.153-.905-.454 0-.218-.073-.413.051-.662.193-.107.399-.033.767-.033.647.041 1.171.01 2.082-.017.108 0 .195.08.19.182-.011.187.04.36-.035.56-.24.23-.67-.105-.932.338-.039.112-.057.409-.065.701l-.09 3.62c-.008.582-.042 1.156-.21 1.636-.163.447-.352.776-.867 1.125a3.025 3.025 0 01-.803.352c-.688.213-1.79.319-2.798.252a8.227 8.227 0 01-1.402-.206 4.415 4.415 0 01-.964-.345c-.948-.55-.969-1.013-1.138-1.597a4.43 4.43 0 01-.08-.859v-4.002c-.018-.286.047-.563-.135-.814-.126-.093-.248-.087-.435-.1M119.374 49.051c-.065-.442-.092-.799-.473-1.255-.572-.511-1.325-.556-2.184-.304-.362.098-.798.597-.751.987-.049.352.364.88.807 1.024.536.206 1.178.265 1.768.395.4.078.794.188 1.111.313.318.125.558.262.754.41.997.82.958 1.724.681 2.732-.104.304-.26.584-.462.832a2.939 2.939 0 01-.724.636c-.407.213-.815.425-1.365.544-.549.118-1.241.142-1.933.166-.873.011-1.54-.094-2.224-.185a14.287 14.287 0 01-.618-.092c-.326-.05-.455-.158-.44-.37.047-.868-.062-1.358.05-2.166.232-.188.617-.063.929-.092.097-.014.229.048.249.126.15.189-.061 1.167.786 1.695.688.338 1.704.614 2.76-.176.375-.426.525-.952.152-1.53a.753.753 0 00-.203-.167 2.095 2.095 0 00-.534-.22c-.29-.083-.753-.182-1.213-.28a9.171 9.171 0 01-1.16-.318c-.535-.196-.865-.373-1.242-.749-.695-.762-.74-1.577-.476-2.502.094-.278.233-.523.416-.74.183-.219.41-.41.661-.556.788-.44 1.657-.612 2.577-.64.353 0 .706.017 1.17.062.464.046 1.039.121 1.364.162.55.073.508.054.716.093.312.02.292.332.268.55-.007.32-.005.79 0 1.082-.05.138.201.617-.144.842-.301.004-.589.04-.94-.025-.136-.093-.118-.17-.133-.284M125.557 51.09l.001 2.147c-.004.472.012.897.042 1.266.532-.018 1.164.1 1.896-.134a.817.817 0 00.42-.362c.175-.291.199-.758.442-1.395.273-.14.642-.087 1.042-.041.083.028.142.153.14.257.028.456.029.912.027 1.37-.037.075.113.705-.06 1.085-.115.089-.322.05-.633.047-.12-.004-.19-.008-.68-.014-.834-.014-2.622-.02-4.049-.018-.5 0-1 .013-1.344.02-.344.008-.531.015-.65.02-.526.14-.379-.395-.395-.671.135-.31.468.005.892-.334.09-.199.077-.418.083-.748l-.002-5.068c-.017-.285.048-.561-.134-.813-.148-.176-.582.053-.842-.266.011-.21-.079-.399.063-.64.093-.068.268-.03.504-.03.122.006.234.01.536.016.724.022 2.014.016 3.044.017.69 0 1.382-.013 1.916-.02.534-.008.911-.016 1.134-.02.433.004.436-.047.529.155-.027.631.027 1.44-.017 2.221-.215.213-.588.072-.885.104-.559.103-.328-.524-.487-.91-.066-.341-.258-.614-.454-.679-.485-.19-1.435-.13-2.08-.077l.001 2.706c.326-.029.797.052.993-.394.13-.152.112-.465.454-.725.251.008.481-.078.784.06.126.214.04.325.045.573-.013.758-.015.752-.011 1.181-.035.392.134.798-.005 1.231-.273.104-.606.125-.987-.014-.127-.25-.065-.621-.498-.99-.191-.102-.229-.102-.379-.11-.093-.003-.244-.003-.396-.003M136.325 48.528c-.124-.311-.114-.607-.663-.952-.55-.257-1.39-.425-2.238.092-.538.467-.634 1.052.022 1.622.578.424 1.413.425 2.139.602.399.079.794.188 1.11.313.318.125.558.262.755.41.997.82.958 1.724.68 2.733-.104.303-.26.582-.462.831a2.925 2.925 0 01-.723.636c-.408.212-.815.425-1.365.544-.55.118-1.242.142-1.934.166-.873.011-1.54-.094-2.223-.185a15.435 15.435 0 01-.618-.091c-.327-.05-.455-.158-.44-.37.046-.87-.063-1.36.05-2.167.232-.188.617-.063.929-.092.096-.014.228.048.248.126.15.19-.061 1.167.786 1.695.688.338 1.704.614 2.761-.176.375-.425.525-.952.15-1.529a.756.756 0 00-.201-.169 2.104 2.104 0 00-.534-.218 21.218 21.218 0 00-1.214-.28 9.257 9.257 0 01-1.16-.319c-.534-.196-.865-.374-1.241-.748-.696-.763-.74-1.578-.477-2.504.095-.277.234-.522.416-.74.183-.217.41-.408.662-.555.788-.44 1.657-.612 2.577-.64.353 0 .706.017 1.17.063.464.045 1.038.12 1.363.162.55.072.508.053.716.093.312.019.293.33.269.55-.008.319-.006.789 0 1.08-.051.14.2.618-.144.843-.302.004-.59.04-.94-.025-.232-.19-.122-.535-.226-.801" fill="#A41F35"/><path d="M47.194 50.564l-.001-3.156c.38.002.596-.046 1.015.022.27.066.47.106.72.45.291.564.405 1.35-.148 2.244-.335.4-.77.418-1.057.432-.118.005-.274.006-.369.007h-.16M47.237 54.73c-.081-1.26-.03-2.448-.043-3.681.75-.026 1.245-.114 1.867.441.554.671.586 1.509.19 2.506-.131.286-.518.672-.918.719-.345.06-.553.06-1.096.015" fill="#FEFEFE"/><path d="M55.55 51.409l1.12-3.145 1.234 3.144H55.55zm24.793 2.805c.002-.456.001-.913-.028-1.37.003-.102-.057-.228-.14-.256-.4-.045-.768-.1-1.041.041-.244.637-.267 1.104-.442 1.395a.815.815 0 01-.42.362c-.732.234-1.364.117-1.897.134-.03-.369-.045-.794-.041-1.266l-.001-2.147c.152 0 .303 0 .396.004.15.008.188.006.38.11.432.368.37.739.497.99.38.139.713.117.986.013.139-.433-.03-.839.005-1.23-.003-.43-.002-.424.011-1.181-.004-.249.082-.36-.045-.574-.302-.138-.532-.052-.783-.06-.342.26-.326.573-.455.725-.196.447-.667.365-.992.394l-.001-2.707c.644-.05 1.595-.111 2.08.079.196.064.388.337.454.678.16.386-.072 1.012.487.91.297-.032.67.109.884-.103.044-.782-.009-1.59.018-2.221-.093-.203-.096-.152-.529-.155l-1.134.019c-.534.007-1.225.02-1.917.02-1.03 0-2.32.006-3.043-.018-.302-.005-.414-.01-.536-.013-.236-.002-.41-.04-.505.028-.141.241-.05.43-.062.639.26.32.694.092.842.267.182.251.117.528.134.813l.002 5.069c-.007.329.007.549-.084.747-.356.304-.686.105-.822.23a.286.286 0 00-.122-.03c-.447-.071-.556.124-1.12-.601-1.067-1.363-1.985-2.725-2.977-4.087.89-.958 1.859-1.914 2.433-2.1.345-.171.72-.09 1.024-.251.068-.193.021-.362.032-.542-.056-.338-.415-.145-.575-.169-.3.026-.646.022-.824.02-.18-.002-.183 0-.55-.004-.423.008-.918-.1-1.112.012-.142.223-.045.396-.067.594.01.252.21.179.297.216.059.1-.185.286-.267.41-.658.806-1.327 1.618-2.315 2.51l-.001-2.021c.005-.322-.004-.536.084-.741.213-.3.631-.102.76-.26.095-.216.03-.383.045-.575.008-.108-.092-.193-.225-.181-.296.006-.41.019-.827.03-.405.012-1.185.018-1.512.016-.828.008-1.644-.094-2.07-.004-.133.238-.049.427-.058.635.258.32.694.092.842.268.181.251.117.527.134.813l.001 5.068c0 .262-.01.524-.042.638-.135.427-.618.226-.743.295-.097.094-.467-.032-.619-.055-.241-.033-.51-.347-.601-.592-.872-2.028-1.808-4.056-2.615-6.084l-.093-.228c-.038-.094-.1-.246-.143-.36-.09-.183-.043-.314-.225-.473-.589-.019-1.15.041-1.456.004-.267.024-.396-.169-.58.3-.044.109-.11.286-.173.465-.793 1.934-1.561 3.708-2.342 5.563-.027.065-.053.13-.118.276-.064.146-.166.373-.25.533-.366.771-1.042.575-1.381.766-.032.263-.144.536.096.694.159.03 0 .021.505.006.267-.01.765-.028 1.157-.031.393-.002.682.011.933.02.332-.007.592.085.886-.034.126-.231.046-.419.055-.612-.209-.274-.692-.1-.82-.163-.511.011-.253-.466-.156-.774l.613-1.696 2.44-.001.642 1.682c.074.207.194.444.175.548.042.13-.207.216-.426.226-.149.023-.436-.004-.529.049-.211.21-.081.449-.094.661.064.106.053.138.373.134.155-.002.429-.01.671-.017.526-.017 1.217-.03 1.963-.024.418.004.812.016 1.11.025.3.008.502.013.622.014.207.016.078-.051.39.003.213.001.16-.008.623-.02.27-.008.77-.023 1.301-.027a51.23 51.23 0 011.506.017c.41.01.669.024.821.027.152.003.198-.004.234-.02a.152.152 0 00.075-.064c.049-.218.022-.398.018-.592-.262-.32-.692-.092-.84-.267-.183-.251-.118-.528-.135-.812l-.001-2.187c.07.1.082.114.213.299l.196.27c.177.245.504.69.564.774.424.595 1.011 1.421 1.283 1.826.149.217.186.276.241.364.102.162.23.362.28.367.311.097.486.006.858.014a22.186 22.186 0 011.719.005c.357.011.697.052.787-.012a.16.16 0 00.08.029c.154.008-.001.003.578-.008.351-.008 1.008-.031 1.664-.031 1.426-.003 3.215.003 4.048.017.49.006.56.01.68.014.312.004.518.042.633-.047.174-.38.024-1.01.06-1.086z" fill="#A41F35"/><path d="M98.866 53.959c-.113.32-.647.757-1.14.883-.709.145-1.558.373-2.453-.692a2.621 2.621 0 01-.242-.566 4.844 4.844 0 01-.186-.923 15.29 15.29 0 01-.085-1.52c-.007-.569.01-1.166.045-1.613.036-.448.088-.745.147-.974.101-.531.53-1 .946-1.174.716-.265 1.681-.48 2.684.39.316.367.37.62.47 1.07.056.287.1.652.121 1.204a28.7 28.7 0 01.004 1.869c-.019.579-.056 1-.106 1.316-.05.317-.114.53-.205.73" fill="#FEFEFE"/><path d="M31.513 27.866c.026-.022.183-.136.337-.247.31-.199.62-.4.819-.529.395-.258.49-.319.748-.48.322-.222.644-.443 1.167-.779.522-.335 1.244-.786 1.967-1.235.268-.174.537-.345.777-.498.24-.152.454-.284.573-.355.246-.142.186-.085.267-.084.295.327.418.747.724 1.16.072.228.476.539.41.879-.112.165-.538.334-.704.445-.203.104-.244.258-.51-.095-.293-.364-.613-.672-.87-.72-.455-.136-1.402.576-2.133 1.09.484.74.966 1.48 1.447 2.221.167-.133.335-.267.436-.368.257-.306.168-.23.193-.422.043-.192-.155-.574.028-.95.153-.056.42-.382.73-.348.188.13.383.567.463.721.217.392.787 1.199 1.08 1.647.098.218-.669.646-.897.575-.316-.341-.926-.755-1.362-.36-.08.047-.16.102-.24.155.41.638.795 1.243 1.233 1.914.038.048.39.61.586.868.321-.186.487-.317.735-.462.23-.137.448-.3.598-.44.15-.138.232-.253.277-.37.045-.116.051-.233.055-.293a.502.502 0 00.003-.067c.023-.132-.049-.364-.13-.616a7.47 7.47 0 00-.095-.311c-.038-.1-.032-.1-.072-.141-.273-.462.489-.653.827-.873.244-.107.444.484.582.648.165.271.38.627.486.796.028.248.76.673.223.94a1.763 1.763 0 01-.428.236c-.49.291-.977.584-1.29.774-.612.374-.737.457-1.117.68l-.317.203-.201.132-.57.37-.331.213c-.83.587-1.034.701-1.705 1.217-.026.022-.15.124-.301.016-.175-.276-.471-.6-.018-.8.485-.366.267-.459.193-.68a4.895 4.895 0 00-.23-.382l-2.807-4.068a4.736 4.736 0 00-.254-.339c-.493-.513-.56-.052-1.075.108-.216-.01-.31-.328-.424-.489-.024-.066.037-.177.117-.207M57.806 19.833c.532-.186.61-.203.95-.321.212-.03.438-.29.596-.001.049.205.175.397.145.617-.062.143-.39.175-.655.37-.235.244-.127.294-.11.492.043.28.231.67.294.974.034.113.07.225.095.295.032.092.033.094.055.14 0 .246.486.85-.067.93-.383.116-1.194.57-1.804.926a9.546 9.546 0 01-2.515 1.111c-1.225.332-2.253.41-3.354-.2-.394-.274-.788-.548-1.111-.947-.903-1.273-1.793-3.332-.945-4.936.159-.309.373-.603.661-.892a5.39 5.39 0 011.131-.848c.48-.278 1.08-.551 1.696-.767.433-.148.865-.295 1.428-.436.564-.142 1.258-.277 1.954-.412.118-.016.237-.03.31-.036.309-.076.284.221.334.274.053.157.094.352.215.78.132.383.385.734.299 1.181-.106.138-.651.229-.784.298-.18.079-.378.063-.47-.186a2.492 2.492 0 00-.403-.555c-.82-.738-1.517-.553-2.487-.165-.25.116-.474.259-.66.414-.767.682-.748 1.259-.717 1.92.04.606.317 1.631.727 2.556.19.428.387.772.575 1.038.956 1.239 1.666 1.135 2.67.641.834-.621.598-.988.489-1.605-.174-.31-.081-.616-.467-.978-.184-.093-.535.233-.898.105-.098-.212-.243-.47-.22-.708.122-.186.553-.264.898-.38l.683-.208c.166-.052.24-.076.49-.163.249-.086.674-.235 1.098-.384l-.126.066M59.509 16.601c-.109-.257-.027-.556-.419-.732-.153-.075-.524.28-.851-.023-.041-.188-.149-.368-.122-.563.016-.042.097-.09.172-.1l-.01.001c.448-.13.569-.145.97-.254a50.69 50.69 0 001.718-.483c.208-.06.357-.1.506-.14.214-.039.513-.16 1.092-.294.243-.076.256-.103.37.067.019.2.192.393.058.6-.126.161-.532.067-.768.435-.038.204.018.407.09.713l1.048 4.004c.066.252.154.5.25.694.169.3.254.486.686.716.592.245 1.176.146 1.969-.102a3.21 3.21 0 00.656-.303c.384-.245.56-.497.664-.76.1-.182.086-.518.068-.88l-.032-.378a.975.975 0 00-.016-.12c-.298-1.375-.58-2.715-.895-4.122-.078-.144-.012-.296-.233-.497-.062-.05-.214-.067-.407-.04-.125.015-.083.007-.12.014-.114-.002-.212.134-.389-.118-.016-.194-.133-.374-.05-.586.16-.108.154-.068.299-.113.524-.135 1.38-.243 2.114-.455l.335-.064c.443-.2.388.37.437.638-.212.25-.395.072-.81.359-.15.292-.056.462-.016.853.054.277.106.555.194 1.036l.294 1.618c.082.45.122.66.162.872.025.19.05.38.062.494.013.115.014.156.014.196.071.762.134 1.43-.604 2.204-.285.24-.6.441-1.009.633-.754.365-2.024.713-3.143.807-.516.045-.94.03-1.278-.02a2.409 2.409 0 01-.82-.255c-.634-.474-.926-1.094-1.138-1.77l-1.098-3.782M70.45 19.772c-.102-.467-.203-.88-.235-1.492.113-.203.668-.19.887-.248.348-.04.305.229.458.524.112.315.156.574.542.85.726.518 1.57.515 2.666-.09.595-.536.728-1.025.22-1.777-.6-.416-1.362-.305-2.03-.378-.537-.04-1.073-.08-1.47-.167-.602-.163-.932-.284-1.406-.736-.653-.775-.86-1.804-.294-2.858.146-.245.341-.47.57-.652.352-.267.74-.487 1.189-.667.448-.18.957-.321 1.6-.412.646-.09 1.426-.132 2.203-.107.288-.018.433-.006.74-.03.207.018.508-.087.583.256-.025.423.097.806.125 1.361.038.362.293.764-.133.814-.368-.002-.695.228-.983-.025-.158-.437-.22-1.212-1.022-1.483-.571-.137-1.39-.255-2.3.448-.485.448-.335 1.274.296 1.546.635.31 1.495.188 2.254.259.404.018.81.068 1.139.147.33.078.584.18.797.3.52.303.715.605.874.965.32.943.406 2.013-.856 3.205-.376.255-.752.511-1.263.701-.51.19-1.155.315-1.8.44-.46.064-.891.126-1.231.134-.452.03-.657.034-.946.057a6.016 6.016 0 01-.647.01c-.295-.015-.41-.08-.45-.43a6.427 6.427 0 01-.077-.465M80.036 18.578c-.267-.18-.5-.408-.705-.693-.463-.618-.722-1.616-.815-2.592a6.677 6.677 0 01.012-1.48c.058-.429.168-.767.32-1.06.153-.295.346-.545.577-.755a4.18 4.18 0 01.964-.67c.81-.42 1.889-.668 2.935-.714a8.436 8.436 0 011.836.068 5.793 5.793 0 011.486.424 3.84 3.84 0 011.065.694c.219.21.398.46.544.772.317.632.443 1.73.397 2.753a6.024 6.024 0 01-.21 1.396c-.217.685-.506 1.162-1.234 1.679a4.999 4.999 0 01-1.186.576c-.903.322-2.214.49-3.404.394a6.894 6.894 0 01-1.504-.277 3.887 3.887 0 01-1.078-.515M91.458 17.36c-.028.23-.113.638.187.824.18.166.59-.158.76.288v.462c-.115.252-.344.117-.532.126a37.771 37.771 0 00-2.198-.024c-.178.005-.287.106-.357-.15.017-.195-.057-.365.051-.584.156-.157.492.033.84-.206.095-.13.1-.443.105-.77l.049-4.993c.001-.185 0-.373-.025-.497-.1-.335-.176-.363-.297-.37-.117-.059-.575.138-.726-.23.015-.19-.05-.35.045-.568.312-.094.975-.013 1.3-.017.32-.01.836.028 1.267 0 .285.034.734-.132.93.306.19.26.64.709 1.07 1.266a111.239 111.239 0 013.636 4.253c.031-.46.062-.921.101-1.562.038-.64.083-1.46.128-2.28.01-.278.094-.555-.052-.794-.16-.16-.397 0-.855-.27 0-.285-.038-.44.115-.67.473-.037 1.146.113 1.697.128.41.057.833.002 1.426.143.064.203.028.418-.07.676-.129.175-.534-.094-.942.182-.108.187-.119.396-.151.696-.148 1.736-.263 3.472-.447 5.208-.032.67.016.898-.129 1.426-.133.093-.271.064-.462.028-.411-.07-.416-.041-.67-.065a7.192 7.192 0 00-.671-.011c-.115-.018-.231-.035-.441-.25-.21-.214-.516-.626-.821-1.038a36.12 36.12 0 00-.421-.557 122.7 122.7 0 00-3.486-4.139l.013 1.105a1092.9 1092.9 0 01.023 2.31l.01.618M31.748 29.166c.058.085.118.168.154.217.158.262.482.423.293.645a.472.472 0 01-.065.057c-.476.278-.816.753-1.049.41-.425-.469-.895-.803-1.168-.67-.207.025-.71.42-1.008.61-.086.064-.193.15-.248.194l-.06.047c-.23.19-.243.185-.501.418.564.693 1.057 1.386 1.583 2.08.723-.508.725-.91.504-1.39-.258-.294.417-.55.57-.727.251-.244.464.178.61.377.087.168.208.353.348.55.248.314.46.592.619.801.07.091.152.194.194.247.098.118.05.076.071.107.177.181.095.322-.261.552-.202.105-.355.406-.615.13-.252-.207-.61-.52-.893-.408-.171.036-.438.2-.657.394l1.492 1.942c.146.18.197.276.415.469.259.182.339.046.566-.092a7.68 7.68 0 01.313-.238c.311-.281.421.082.653.339.077.169.029.185-.133.31-.107.076-.297.2-.49.315-.25.19-.502.379-.642.481-.14.102-.168.119-.27.193-.294.21-1.017.784-1.527 1.203-.249.196-.267.198-.579.489l-.04.037c-.171.23-.522-.261-.596-.49.02-.171.283-.242.474-.537.09-.305-.122-.435-.356-.77l-3.119-3.86c-.144-.17-.195-.26-.41-.443-.352-.203-.396.04-.858.284-.162.122-.453-.291-.533-.463 0-.15.226-.295.426-.447l1.505-1.155a129.997 129.997 0 011.375-1.035c.087-.067.221-.168.71-.533.521-.385 1.403-1.063 2.333-1.726.068-.063.279.077.23.17.229.27.23.367.464.666.075.105.112.145.176.25M44.654 24.286c-.198.185-.559.359-.809.447l-.924-1.808a45.004 45.004 0 01-.402-.816 30.51 30.51 0 00-.184-.275c.89-.498 1.634-.946 2.498.206.37.65.625 1.507-.179 2.246m6.566 1.143c-.525.144-.883.347-1.428.136-1.132-.579-2.222-1.258-3.377-1.868.274-.15.526-.307.713-.517 1.113-1.124.574-2.369-.221-3.091a1.583 1.583 0 00-.92-.328c-.356-.016-.765.063-1.345.303s-1.333.64-1.757.867c-.424.228-.521.284-.674.368-.153.085-.362.198-.581.32-.361.2-.733.41-.834.454-.052.026-.102.052-.328.171l-1.032.548c-.194.089-.33.146-.483.283-.085.204.158.399.236.587.42.175.725-.326.98-.158.23.184.287.373.408.57l2.396 4.343c.18.357.31.478.277.777-.208.32-.484.316-.577.473-.043.317.325.86.494.617a.632.632 0 00.095-.05c.442-.282.636-.386.934-.526.736-.478 1.482-.802 2.361-1.255.146-.06.375-.085.469-.27.033-.219-.169-.38-.237-.559-.316-.226-.677.24-.854.135-.29-.157-.353-.42-.49-.643l-.912-1.776c.109.051.207.125.334.194.31.208.423.27.688.432.701.45 1.392.889 1.637 1.07.231.098.564.456.728.553.224.297.696-.227.978-.276.079-.058.09-.069.234-.146.12-.064.306-.153.495-.235.078-.04.156-.08.347-.164.191-.083.494-.21.798-.336.24-.102.602-.181.73-.366a.817.817 0 00-.282-.637" fill="#A41F35"/><path d="M85.593 17.758c-.11.33-.621.766-1.093.916-.693.2-1.577.408-2.412-.534a2.801 2.801 0 01-.28-.558 5.079 5.079 0 01-.255-.921c-.078-.41-.147-.947-.196-1.498-.05-.55-.078-1.116-.077-1.542.01-.704.056-1.071.244-1.487.288-.46.641-.661 1.041-.8.68-.178 1.588-.346 2.499.36.116.107.206.225.273.355.136.23.23.484.303.907.074.424.126 1.018.154 1.704.027.686.03 1.463-.002 1.997-.03.535-.094.825-.2 1.101" fill="#FEFEFE"/><path d="M109.23 14.906c-.096.503-.182.975-.713 1.59-.465.429-.926.203-1.444.204l.443-2.572c.097-.44.118-.643.184-.98.023-.104.036-.228.092-.366.369.034.75.038 1.147.351.515.59.388 1.076.29 1.773m2.494-1.524c-.32-.364-.586-.496-1.05-.654a7.275 7.275 0 00-1.049-.245c-.79-.155-1.59-.292-2.02-.35-.419-.06-.45-.068-1.176-.169a62.683 62.683 0 00-1.718-.282c-.217-.02-.371-.102-.566-.035-.142.204-.079.364-.118.546-.053.223.24.23.377.265.602-.001.535.578.47.965l-.696 4.94c-.035.242-.083.485-.132.598-.174.44-.758.109-.876.22-.168.205-.113.386-.163.614.186.323.336.154.434.203.163-.002.631.075.891.106.235.02.666.077 1.197.158.594.116 1.143.222 1.469.28.277.038.293.15.565.038.105-.242.116-.352.113-.634-.345-.297-.558-.178-.685-.293-.251-.23-.096-.571-.077-.873l.257-1.486c.302.048.422.073.556.098.936.185 1.748.292 2.32.166a2.7 2.7 0 00.622-.21c.51-.206 1.04-.85 1.211-1.443.3-1.024.412-1.742-.156-2.523M141.832 28.56a2.893 2.893 0 01-.569-.193 1.194 1.194 0 01-.128-.058c-.113-.089-.174-.112-.289-.202l.984-1.774c.105-.26.371-.579.604-1.057.589.172 1.221.71 1.302 1.164.109.365.016.8-.246 1.226-.497.794-1.09.987-1.658.894m-9.37-4.629l.802-1.83c.16-.315.25-.512.367-.735.048-.152.102-.238.119-.38.352.073.708.229 1.028.483.755.744.637 1.377-.05 2.336-.722.715-1.38.7-2.266.126m-9.244-3.263l-.504-.162c-.125-.042-.169-.056-.212-.072l1.99-2.568c.04.411.077.822.118 1.347.041.525.086 1.163.11 1.506l.032.441c-.63-.207-1.16-.375-1.534-.492m31.211 11.415c-.281-.228-.486-.357-.74-.535a106.09 106.09 0 01-2.21-1.51l-.36-.233c-.188-.121-.475-.309-.62-.403-.144-.095-.146-.096-.217-.141l-.345-.223a30.095 30.095 0 00-.593-.402c-.265-.173-.63-.409-.996-.643-.14-.087-.338-.29-.512-.261-.199.165-.325.373-.356.566.128.26.378.334.462.43.316.166.048.577-.157.908l-2.661 4.158c-.135.208-.283.415-.38.503-.17.296-.662-.147-.812-.164-.588-.473-.564-.886-.619-1.369-.07-1.017-.13-2.176-.233-3.264.798.46 1.782.561 2.502-.079.236-.206.443-.485.58-.775.354-.89.367-1.62-.927-2.55-.44-.305-1.063-.652-1.523-.9-.46-.25-.754-.401-1.113-.587-.36-.186-.784-.406-1.21-.624a57.054 57.054 0 01-1.44-.792c-.281-.139-.287-.205-.552-.227a.915.915 0 00-.318.575c.108.251.431.349.516.434.34.168.087.578-.08.907l-2.313 4.397c-.107.215-.225.43-.307.522-.193.324-.682-.085-.84-.09-.19-.143-.379-.285-.501-.507-.125-.23-.176-.516-.24-.85-.16-1.033-.316-2.039-.513-3.198.176.071.353.142.492.185.609.164 1.435.161 2.08-.608.342-.428.504-.893.53-1.252.021-.59-.14-1.144-.95-1.72a9.7 9.7 0 00-1.231-.667c-1.017-.467-2.076-.884-3.054-1.299-.118-.047-.236-.094-.493-.205-.258-.111-.655-.287-1.052-.463a3.405 3.405 0 01-.348-.139c-.083-.045-.17-.047-.205-.03-.188.137-.166.336-.249.504-.003.373.473.389.536.475.313.07.128.596-.01.92l-1.891 4.586c-.18.342-.179.565-.496.703-.584-.112-1.044-.286-1.164-.754-.075-.38-.053-.56-.095-1.004a255.566 255.566 0 00-.16-3.015c-.043-.72-.07-1.01-.09-1.287a41.29 41.29 0 01-.077-1.557c-.01-.255-.053-.672-.05-.88.077-.22-.2-.356-.347-.378a6.669 6.669 0 01-1.024-.325l-.053-.023a2.101 2.101 0 00-.297-.115c-.144-.025-.168-.096-.413.164a8.54 8.54 0 00-.328.39 119.74 119.74 0 00-3.96 4.439c-.2.22-.396.433-.429.51-.458.49-.93.657-1.382.43.162-.681.299-1.17.485-1.742-.046-.257-.388-.208-.563-.288-.277-.107-.71-.202-.748.11a7.585 7.585 0 01-.317.684c-.271.487-.462.548-.912.578-.421-.023-1.077-.15-1.684-.35.502-1.968.97-3.82 1.455-5.73.084-.31.119-.532.257-.69.36-.17.743.097.895-.005.182-.182.148-.376.222-.563-.077-.253-.143-.171-.348-.24-.514-.145-.812-.172-1.044-.251-.403-.113-.83-.214-1.275-.31-.083-.023-.165-.045-.427-.11l-1.145-.276c-.17-.038-.33-.072-.397-.105-.088-.003-.162.006-.193.043-.115.216-.09.376-.133.567.154.318.493.267.598.338.405.082.2.604.158.912l-1.12 4.86c-.05.242-.113.484-.167.59-.158.402-.75.023-.895.147-.196.22-.181.383-.199.67.28.223.432.136.523.163.21.05.42.097.614.14.195.04.375.077.87.193.496.116 1.307.313 2.117.513.365.1.715.2 1.263.358.311.09.69.198 1.07.305.167.072.6.208.776.258.974.255 1.43.359 2.539.768.26.1.317.153.552.165a.7.7 0 00.24-.655c-.462-.297-.66-.224-.9-.442-.066-.186-.001-.217.318-.668.234-.31.656-.832 1.077-1.354.246.078.491.157.877.286.384.13.909.311 1.433.493.001.175.004.349.006.505.006.5.043 1.426.002 1.8-.327.4-.905-.32-1.143.093l-.129.376c-.066.147.122.273.218.301a8.089 8.089 0 01.428.118c.192.065.446.165.837.292.349.125.668.242.893.332.478.15.731.278 1.386.558.233.115.43.194.765.32.266.065.579.22.987.376.35.12.725.279 1.116.46.099.042.197.083.42.185.223.102.57.264.918.426.165.077.478.347.584.11.045-.229.4-.505.05-.69-.748-.231-.466-.684-.299-1.12l.823-1.82c.073.444.09.737.143 1.191.036.39.078.717.117 1.021l.1.898c.025.4-.015.575.004.922-.084.288.487.391.828.567.342.134.824.366 1.07.504.326.174.894.49 1.27.695.24.076.553.24.965.46.858.392 1.784.968 2.357 1.272.136.088.36.272.497.229.165-.132.213-.3.32-.45.027-.125.012-.188-.066-.26-.153-.132-.317-.197-.389-.264-.323-.167-.022-.582.15-.912l.96-1.77c.05.425.015.814.04 1.215.014.827.032 1.36.038 1.922.007.425-.135.885-.021 1.156 1.335.747 1.85 1.051 2.955 1.814.258.061.57.31.83.461.743.45 1.651 1.055 2.278 1.477.286.188.57.378.762.51.326.224.299.212.845.605l.7.508c.29.224.4.382.66.38.455-.548.692-.897 1.048-1.421.156-.29.582-.544.31-.842-.235-.16-.593-.5-.77-.488-.114-.01-.168.06-.366.219-.066.054-.177.148-.287.242-.216.169-.415.324-.528.384-.305.123-.547.093-.93-.092-.388-.187-.863-.579-1.228-.803.234-.382.34-.558.664-1.032l1.176-1.749c.153.106.282.201.352.259.445.332.255.712.218.944-.009.19-.225.302-.072.533.351.225.616.614.915.383l.25-.478c.092-.13.234-.358.398-.6.14-.234.335-.416.57-.757.11-.146.393-.445.247-.566-.269-.205-.473-.42-.71-.436-.513.237-.796.411-.935.419-.217-.01-.492-.17-.787-.323.48-.735 1-1.47 1.463-2.204.116.062.232.126.313.174.145.086.171.116.387.258.486.327.76.488 1.021.805.43.421-.156 1.234-.193 1.36-.141.266-.133.22-.04.384.534.377.567.576.965.572.484-.52.679-.96 1.015-1.343.146-.21.427-.39.225-.595" fill="#A41F35"/></g></svg>